<svg xmlns="http://www.w3.org/2000/svg" viewBox="0 0 100 100">
  <defs>
    <linearGradient id="wp" x1="0" y1="0" x2="1" y2="1">
      <stop offset="0" stop-color="#9F7DE7"/>
      <stop offset="1" stop-color="#6840BD"/>
    </linearGradient>
  </defs>
  <g fill="url(#wp)">
    <path d="M50,50 C38,46 30,34 33,22 C35,12 42,6 50,2 C58,6 65,12 67,22 C70,34 62,46 50,50 Z"/>
    <path d="M50,50 C38,46 30,34 33,22 C35,12 42,6 50,2 C58,6 65,12 67,22 C70,34 62,46 50,50 Z" transform="rotate(72 50 50)"/>
    <path d="M50,50 C38,46 30,34 33,22 C35,12 42,6 50,2 C58,6 65,12 67,22 C70,34 62,46 50,50 Z" transform="rotate(144 50 50)"/>
    <path d="M50,50 C38,46 30,34 33,22 C35,12 42,6 50,2 C58,6 65,12 67,22 C70,34 62,46 50,50 Z" transform="rotate(216 50 50)"/>
    <path d="M50,50 C38,46 30,34 33,22 C35,12 42,6 50,2 C58,6 65,12 67,22 C70,34 62,46 50,50 Z" transform="rotate(288 50 50)"/>
  </g>
  <circle cx="50" cy="50" r="9" fill="#F3EDFF"/>
  <circle cx="50" cy="50" r="3.5" fill="#7F55D9"/>
</svg>
