<svg xmlns="http://www.w3.org/2000/svg" viewBox="0 0 100 100" width="100" height="100">
  <defs>
    <linearGradient id="wbl" x1="0.2" y1="0" x2="0.1" y2="1">
      <stop offset="0" stop-color="#A98BEC"></stop>
      <stop offset="0.5" stop-color="#8A6BDD"></stop>
      <stop offset="1" stop-color="#6E4FC6"></stop>
    </linearGradient>
  </defs>
  <g fill="#4F9A52">
    <path d="M48 82 C43 90 38 96 32 99 C36 92 40 86 44 80 Z"></path>
    <path d="M52 82 C57 90 62 96 68 99 C64 92 60 86 56 80 Z"></path>
    <path d="M50 84 C49 91 49 96 50 99 C51 96 51 91 50 84 Z"></path>
  </g>
  <path d="M50 6 C62 10 79 21 85 38 C81 59 72 74 62 84 C60 90 55 92 50 92 C45 92 40 90 38 84 C28 74 19 59 15 38 C21 21 38 10 50 6 Z" fill="url(#wbl)"></path>
  <g fill="none" stroke="#5238A8" stroke-linecap="round">
    <path d="M50 90 C48 60 48 32 50 9" stroke-width="1.6" opacity="0.55"></path>
    <path d="M50 9 C62 14 79 23 84 37" stroke-width="1.3" opacity="0.45"></path>
    <path d="M50 9 C38 14 21 23 16 37" stroke-width="1.3" opacity="0.45"></path>
    <path d="M84 39 C80 58 72 73 62 82" stroke-width="1.1" opacity="0.38"></path>
    <path d="M16 39 C20 58 28 73 38 82" stroke-width="1.1" opacity="0.38"></path>
  </g>
  <path d="M28 37 C37 22 45 14 50 11 C45 20 38 31 33 43 Z" fill="#FFFFFF" opacity="0.26"></path>
</svg>