<svg xmlns="http://www.w3.org/2000/svg" viewBox="0 0 100 100" width="100" height="100">
  <defs>
    <linearGradient id="wbud" x1="0.3" y1="1" x2="0.2" y2="0">
      <stop offset="0" stop-color="#2E9E6B"></stop>
      <stop offset="0.46" stop-color="#2E9E6B"></stop>
      <stop offset="0.72" stop-color="#7E94B0"></stop>
      <stop offset="1" stop-color="#9F7DE7"></stop>
    </linearGradient>
  </defs>
  <g fill="#4F9A52">
    <path d="M48 82 C43 90 38 96 32 99 C36 92 40 86 44 80 Z"></path>
    <path d="M52 82 C57 90 62 96 68 99 C64 92 60 86 56 80 Z"></path>
    <path d="M50 84 C49 91 49 96 50 99 C51 96 51 91 50 84 Z"></path>
  </g>
  <g transform="translate(50 88) scale(0.86 0.9) translate(-50 -88)">
    <path d="M50 14 C60.1 17.3 74.2 27.1 78.9 41.9 C75.7 59.9 68.7 73 60.9 81.2 C59.4 86.2 54.7 88.6 50 88.6 C45.3 88.6 40.6 86.2 39.1 81.2 C31.3 73 24.3 59.9 21.1 41.9 C25.8 27.1 39.9 17.3 50 14 Z" fill="url(#wbud)"></path>
    <g fill="none" stroke="#1E7A50" stroke-linecap="round">
      <path d="M50 88 C48 60 48 34 50 16" stroke-width="1.4" opacity="0.45"></path>
      <path d="M50 16 C60 21 73 30 78 41" stroke-width="1.1" opacity="0.4"></path>
      <path d="M50 16 C40 21 27 30 22 41" stroke-width="1.1" opacity="0.4"></path>
      <path d="M78 43 C75 59 67 73 61 81" stroke-width="0.9" opacity="0.32"></path>
      <path d="M22 43 C25 59 33 73 39 81" stroke-width="0.9" opacity="0.32"></path>
    </g>
    <path d="M26 41 C34 27 42 19 47 16 C42 24 35 34 31 45 Z" fill="#FFFFFF" opacity="0.24"></path>
  </g>
</svg>