<svg xmlns="http://www.w3.org/2000/svg" viewBox="0 0 100 100" width="100" height="100">
  <defs>
    <mask id="wwSpark">
      <rect x="0" y="0" width="100" height="100" fill="#fff"></rect>
      <path d="M50,42 C51,47.4 52.6,49 58,50 C52.6,51 51,52.6 50,58 C49,52.6 47.4,51 42,50 C47.4,49 49,47.4 50,42 Z" fill="#000"></path>
    </mask>
  </defs>
  <g fill="#FFFFFF" mask="url(#wwSpark)">
    <path d="M50,50 C38.7,46.2 31.2,35 34,22.7 C35.9,12.4 42.5,6.8 50,3 C57.5,6.8 64.1,12.4 66,22.7 C68.8,35 61.3,46.2 50,50 Z"></path>
    <path d="M50,50 C38.7,46.2 31.2,35 34,22.7 C35.9,12.4 42.5,6.8 50,3 C57.5,6.8 64.1,12.4 66,22.7 C68.8,35 61.3,46.2 50,50 Z" transform="rotate(90 50 50)"></path>
    <path d="M50,50 C38.7,46.2 31.2,35 34,22.7 C35.9,12.4 42.5,6.8 50,3 C57.5,6.8 64.1,12.4 66,22.7 C68.8,35 61.3,46.2 50,50 Z" transform="rotate(180 50 50)"></path>
    <path d="M50,50 C38.7,46.2 31.2,35 34,22.7 C35.9,12.4 42.5,6.8 50,3 C57.5,6.8 64.1,12.4 66,22.7 C68.8,35 61.3,46.2 50,50 Z" transform="rotate(270 50 50)"></path>
  </g>
</svg>