<svg xmlns="http://www.w3.org/2000/svg" viewBox="0 0 132 132" width="132" height="132">
  <defs>
    <linearGradient id="lgp" x1="0" y1="0" x2="1" y2="1">
      <stop offset="0" stop-color="#9F7DE7"></stop>
      <stop offset="1" stop-color="#6840BD"></stop>
    </linearGradient>
    <clipPath id="lgLeft" clipPathUnits="objectBoundingBox"><rect x="0" y="0" width="0.5" height="1"></rect></clipPath>
  </defs>
  <g transform="translate(16 16)">
    <g fill="url(#lgp)">
      <path d="M50,50 C38.7,46.2 31.2,35 34,22.7 C35.9,12.4 42.5,6.8 50,3 C57.5,6.8 64.1,12.4 66,22.7 C68.8,35 61.3,46.2 50,50 Z"></path>
      <path d="M50,50 C38.7,46.2 31.2,35 34,22.7 C35.9,12.4 42.5,6.8 50,3 C57.5,6.8 64.1,12.4 66,22.7 C68.8,35 61.3,46.2 50,50 Z" transform="rotate(90 50 50)"></path>
      <path d="M50,50 C38.7,46.2 31.2,35 34,22.7 C35.9,12.4 42.5,6.8 50,3 C57.5,6.8 64.1,12.4 66,22.7 C68.8,35 61.3,46.2 50,50 Z" transform="rotate(180 50 50)"></path>
      <path d="M50,50 C38.7,46.2 31.2,35 34,22.7 C35.9,12.4 42.5,6.8 50,3 C57.5,6.8 64.1,12.4 66,22.7 C68.8,35 61.3,46.2 50,50 Z" transform="rotate(270 50 50)"></path>
    </g>
    <g fill="url(#lgp)">
      <path d="M50,50 C38.7,46.2 31.2,35 34,22.7 C35.9,12.4 42.5,6.8 50,3 C57.5,6.8 64.1,12.4 66,22.7 C68.8,35 61.3,46.2 50,50 Z" clip-path="url(#lgLeft)"></path>
      <path d="M50,50 C38.7,46.2 31.2,35 34,22.7 C35.9,12.4 42.5,6.8 50,3 C57.5,6.8 64.1,12.4 66,22.7 C68.8,35 61.3,46.2 50,50 Z" clip-path="url(#lgLeft)" transform="rotate(90 50 50)"></path>
      <path d="M50,50 C38.7,46.2 31.2,35 34,22.7 C35.9,12.4 42.5,6.8 50,3 C57.5,6.8 64.1,12.4 66,22.7 C68.8,35 61.3,46.2 50,50 Z" clip-path="url(#lgLeft)" transform="rotate(180 50 50)"></path>
      <path d="M50,50 C38.7,46.2 31.2,35 34,22.7 C35.9,12.4 42.5,6.8 50,3 C57.5,6.8 64.1,12.4 66,22.7 C68.8,35 61.3,46.2 50,50 Z" clip-path="url(#lgLeft)" transform="rotate(270 50 50)"></path>
    </g>
    <circle cx="50" cy="50" r="11" fill="#6840BD"></circle>
    <path d="M50,42 C51,47.4 52.6,49 58,50 C52.6,51 51,52.6 50,58 C49,52.6 47.4,51 42,50 C47.4,49 49,47.4 50,42 Z" fill="#F3EDFF"></path>
  </g>
</svg>